<svg width="46" height="22" viewBox="0 0 46 22" fill="none" xmlns="http://www.w3.org/2000/svg">
<rect width="46" height="22" rx="2" fill="#00E9B4"/>
<path d="M7.496 15.5V7.1H9.104L14.06 13.148H13.28V7.1H15.2V15.5H13.604L8.636 9.452H9.416V15.5H7.496ZM20.1274 15.596C19.4394 15.596 18.8274 15.452 18.2914 15.164C17.7634 14.876 17.3434 14.484 17.0314 13.988C16.7274 13.484 16.5754 12.912 16.5754 12.272C16.5754 11.624 16.7274 11.052 17.0314 10.556C17.3434 10.052 17.7634 9.66 18.2914 9.38C18.8274 9.092 19.4394 8.948 20.1274 8.948C20.8074 8.948 21.4154 9.092 21.9514 9.38C22.4874 9.66 22.9074 10.048 23.2114 10.544C23.5154 11.04 23.6674 11.616 23.6674 12.272C23.6674 12.912 23.5154 13.484 23.2114 13.988C22.9074 14.484 22.4874 14.876 21.9514 15.164C21.4154 15.452 20.8074 15.596 20.1274 15.596ZM20.1274 14.06C20.4394 14.06 20.7194 13.988 20.9674 13.844C21.2154 13.7 21.4114 13.496 21.5554 13.232C21.6994 12.96 21.7714 12.64 21.7714 12.272C21.7714 11.896 21.6994 11.576 21.5554 11.312C21.4114 11.048 21.2154 10.844 20.9674 10.7C20.7194 10.556 20.4394 10.484 20.1274 10.484C19.8154 10.484 19.5354 10.556 19.2874 10.7C19.0394 10.844 18.8394 11.048 18.6874 11.312C18.5434 11.576 18.4714 11.896 18.4714 12.272C18.4714 12.64 18.5434 12.96 18.6874 13.232C18.8394 13.496 19.0394 13.7 19.2874 13.844C19.5354 13.988 19.8154 14.06 20.1274 14.06ZM26.4949 15.5L23.7829 9.044H25.7149L27.9709 14.6H27.0109L29.3509 9.044H31.1509L28.4269 15.5H26.4949ZM34.811 15.596C34.123 15.596 33.511 15.452 32.975 15.164C32.447 14.876 32.027 14.484 31.715 13.988C31.411 13.484 31.259 12.912 31.259 12.272C31.259 11.624 31.411 11.052 31.715 10.556C32.027 10.052 32.447 9.66 32.975 9.38C33.511 9.092 34.123 8.948 34.811 8.948C35.491 8.948 36.099 9.092 36.635 9.38C37.171 9.66 37.591 10.048 37.895 10.544C38.199 11.04 38.351 11.616 38.351 12.272C38.351 12.912 38.199 13.484 37.895 13.988C37.591 14.484 37.171 14.876 36.635 15.164C36.099 15.452 35.491 15.596 34.811 15.596ZM34.811 14.06C35.123 14.06 35.403 13.988 35.651 13.844C35.899 13.7 36.095 13.496 36.239 13.232C36.383 12.96 36.455 12.64 36.455 12.272C36.455 11.896 36.383 11.576 36.239 11.312C36.095 11.048 35.899 10.844 35.651 10.7C35.403 10.556 35.123 10.484 34.811 10.484C34.499 10.484 34.219 10.556 33.971 10.7C33.723 10.844 33.523 11.048 33.371 11.312C33.227 11.576 33.155 11.896 33.155 12.272C33.155 12.64 33.227 12.96 33.371 13.232C33.523 13.496 33.723 13.7 33.971 13.844C34.219 13.988 34.499 14.06 34.811 14.06Z" fill="white"/>
</svg>
