<svg width="131" height="106" viewBox="0 0 131 106" fill="none" xmlns="http://www.w3.org/2000/svg">
<path d="M68 102C85.1208 102 99 99.0899 99 95.5C99 91.9101 85.1208 89 68 89C50.8792 89 37 91.9101 37 95.5C37 99.0899 50.8792 102 68 102Z" fill="#DFEEFC"/>
<path d="M36.5 77C38.9853 77 41 74.9853 41 72.5C41 70.0147 38.9853 68 36.5 68C34.0147 68 32 70.0147 32 72.5C32 74.9853 34.0147 77 36.5 77Z" fill="#DFEEFC"/>
<path d="M18.5 40C20.9853 40 23 37.9853 23 35.5C23 33.0147 20.9853 31 18.5 31C16.0147 31 14 33.0147 14 35.5C14 37.9853 16.0147 40 18.5 40Z" fill="#DFEEFC"/>
<path d="M110.5 16C112.985 16 115 13.9853 115 11.5C115 9.01472 112.985 7 110.5 7C108.015 7 106 9.01472 106 11.5C106 13.9853 108.015 16 110.5 16Z" fill="#DFEEFC"/>
<path d="M117.5 79.5C119.157 79.5 120.5 78.1569 120.5 76.5C120.5 74.8431 119.157 73.5 117.5 73.5C115.843 73.5 114.5 74.8431 114.5 76.5C114.5 78.1569 115.843 79.5 117.5 79.5Z" stroke="#CEE8FF" stroke-width="3"/>
<path d="M40.5 7.5C42.1569 7.5 43.5 6.15685 43.5 4.5C43.5 2.84315 42.1569 1.5 40.5 1.5C38.8431 1.5 37.5 2.84315 37.5 4.5C37.5 6.15685 38.8431 7.5 40.5 7.5Z" stroke="#CEE8FF" stroke-width="3"/>
<path d="M4.5 66.5C6.15685 66.5 7.5 65.1569 7.5 63.5C7.5 61.8431 6.15685 60.5 4.5 60.5C2.84315 60.5 1.5 61.8431 1.5 63.5C1.5 65.1569 2.84315 66.5 4.5 66.5Z" stroke="#CEE8FF" stroke-width="3"/>
<path d="M126.5 52C128.985 52 131 49.9853 131 47.5C131 45.0147 128.985 43 126.5 43C124.015 43 122 45.0147 122 47.5C122 49.9853 124.015 52 126.5 52Z" fill="#DFEEFC"/>
<path d="M89.2742 25H46.4C46.1791 25 46 25.1879 46.0006 25.4088C46.1075 62.5522 60.7831 70.5975 68.1343 69.9665C88.7136 69.4638 91.0754 40.2445 89.6705 25.3527C89.6512 25.1481 89.4797 25 89.2742 25Z" stroke="#5B94C7" stroke-width="3"/>
<path d="M72.5 70.5H64.5V78.5H72.5V70.5Z" stroke="#5B94C7" stroke-width="3"/>
<path d="M89.5 85.5H47.5V93.5H89.5V85.5Z" stroke="#5B94C7" stroke-width="3"/>
<path d="M53.5 83C53.5 80.5147 55.5147 78.5 58 78.5H79C81.4853 78.5 83.5 80.5147 83.5 83V85.5H53.5V83Z" stroke="#5B94C7" stroke-width="3"/>
<path d="M68 58C74.6274 58 80 52.6274 80 46C80 39.3726 74.6274 34 68 34C61.3726 34 56 39.3726 56 46C56 52.6274 61.3726 58 68 58Z" fill="#CEE8FF"/>
<path d="M67.999 39C68.243 39 68.4658 39.1436 68.5719 39.3698L70.3913 43.2336L74.457 43.8544C74.6957 43.89 74.8919 44.0623 74.9689 44.2975C75.0431 44.5354 74.9821 44.7952 74.8124 44.9675L71.8632 47.9813L72.5607 52.2341C72.6005 52.4802 72.5024 52.7318 72.3034 52.8768C72.1072 53.0217 71.8234 53.0409 71.6325 52.9233L67.999 50.9213L64.3444 52.9233C64.1534 53.0409 63.8935 53.0217 63.6946 52.8768C63.4983 52.7318 63.4002 52.4802 63.4161 52.2341L64.1348 47.9813L61.1886 44.9675C61.0172 44.7952 60.9565 44.5354 61.0318 44.2975C61.1069 44.0623 61.305 43.89 61.5434 43.8544L65.6068 43.2336L67.4262 39.3698C67.5349 39.1436 67.755 39 67.999 39ZM67.999 41.1592L66.6066 44.1197C66.5138 44.3139 66.3335 44.4506 66.1266 44.4834L62.9886 44.9593L65.2673 47.2867C65.4132 47.4371 65.4795 47.6531 65.445 47.8637L64.9093 51.1346L67.6993 49.5976C67.8876 49.4937 68.1131 49.4937 68.2987 49.5976L71.0888 51.1346L70.553 47.8637C70.5186 47.6531 70.5875 47.4371 70.7334 47.2867L73.0116 44.9593L69.8741 44.4834C69.6646 44.4506 69.4842 44.3139 69.394 44.1197L67.999 41.1592Z" fill="#5B94C7" stroke="#5B94C7"/>
<path d="M90 38H100.643C100.846 38 101.017 38.149 101.036 38.3514C101.589 44.2885 99.5478 55.5 87 55.5" stroke="#5B94C7" stroke-width="3" stroke-linecap="round"/>
<path d="M46.2373 39H36.4642C36.261 39 36.0899 39.1494 36.0713 39.3517C35.5724 44.7877 37.4665 55 49 55" stroke="#5B94C7" stroke-width="3" stroke-linecap="round"/>
</svg>
