<svg width="20" height="20" viewBox="0 0 20 20" fill="none" xmlns="http://www.w3.org/2000/svg">
<path d="M10 0C4.47656 0 0 4.47656 0 10C0 15.5234 4.47656 20 10 20C15.5234 20 20 15.5234 20 10C20 4.47656 15.5234 0 10 0ZM15.2578 9.63281L10.8828 14.0078C10.6406 14.2539 10.3203 14.375 10 14.375C9.67969 14.375 9.36016 14.2529 9.11641 14.0088L4.74141 9.63379C4.25312 9.14551 4.25312 8.35449 4.74141 7.86621C5.22969 7.37793 6.0207 7.37793 6.50898 7.86621L10 11.3594L13.4914 7.86797C13.9797 7.37969 14.7707 7.37969 15.259 7.86797C15.7473 8.35625 15.7461 9.14453 15.2578 9.63281Z" fill="#5B94C7"/>
</svg>
