<svg width="23" height="20" viewBox="0 0 23 20" fill="none" xmlns="http://www.w3.org/2000/svg">
<path d="M6.8734 2.9041C6.81138 3.25552 6.72869 3.6793 6.68735 3.84984C6.59433 4.26844 6.59433 4.28912 6.7442 4.28912C6.8734 4.28912 7.13696 4.39764 7.28167 4.51651C7.33851 4.55785 7.26099 4.57852 6.94575 4.59919C6.54782 4.62503 6.53748 4.6302 6.52198 4.76457L6.50647 4.90927H7.09045H7.67443L7.89665 5.11082C8.01552 5.21935 8.11371 5.32271 8.11371 5.34338C8.11371 5.35888 7.72094 5.37439 7.23515 5.37439H6.3566V5.55527V5.73615H7.46771H8.57882L8.77521 5.94803C8.87856 6.06689 8.97159 6.18059 8.98192 6.20643C8.99226 6.23227 8.37727 6.25811 7.61242 6.26328L6.2274 6.27878L6.17055 6.51134C6.13955 6.64054 6.12404 6.7594 6.13438 6.78007C6.14472 6.80591 6.95608 6.82142 7.93283 6.82142H9.70544L10.0207 7.17801C10.1912 7.36922 10.3204 7.54493 10.2998 7.5656C10.2791 7.58111 9.29717 7.59661 8.11888 7.59661L5.969 7.59144L5.90699 7.81366C5.87598 7.93769 5.84497 8.08757 5.84497 8.14958L5.83981 8.26844H8.52198H11.2041L11.6228 8.71289C11.8553 8.96095 12.0414 9.18317 12.0414 9.20385C12.0414 9.22968 10.5995 9.25036 8.83722 9.25036H5.63309L5.60725 9.36405C5.52973 9.70514 5.44704 10.2323 5.46771 10.2581C5.48322 10.2736 7.25066 10.2839 9.40053 10.2891H13.3075L13.8398 10.9041C14.1292 11.2452 14.3669 11.5449 14.3669 11.5811C14.3669 11.6276 13.2662 11.6328 9.79329 11.6018L5.22482 11.5656L5.17314 11.6845C5.12146 11.8033 4.90957 12.8731 4.90957 13.0075C4.90957 13.0591 6.05169 13.0746 10.4341 13.0746H15.9638L16.1912 13.3175C16.3928 13.5398 17.323 14.5682 17.5917 14.8731L17.6951 14.9868H11.1163C7.49355 14.9816 4.52714 14.992 4.51681 14.9971C4.51164 15.0075 4.40828 15.4932 4.28942 16.0721C4.17572 16.656 4.0672 17.1728 4.05169 17.2245C4.02585 17.3124 4.24807 17.3124 8.89924 17.302L13.7726 17.2865L14.2584 17.1625C16.3669 16.6302 18.0517 15.2555 19.23 13.1005C19.8398 11.9842 20.1861 10.9868 20.4238 9.66379C20.584 8.73873 20.584 7.44157 20.4238 6.62503C19.9587 4.30979 18.739 2.93511 16.739 2.47516C16.2842 2.3718 16.062 2.36147 13.2817 2.32529C11.6486 2.29945 9.56074 2.27878 8.65117 2.27878L6.98709 2.27361L6.8734 2.9041Z" fill="white"/>
</svg>
