<svg width="122" height="92" viewBox="0 0 122 92" fill="none" xmlns="http://www.w3.org/2000/svg">
<circle cx="18.5" cy="62" r="4.5" fill="#DFEEFC"/>
<circle cx="34.5" cy="23" r="4.5" fill="#DFEEFC"/>
<circle cx="84.5" cy="11" r="4.5" fill="#DFEEFC"/>
<circle cx="117.5" cy="51" r="3" stroke="#CEE8FF" stroke-width="3"/>
<circle cx="54.5" cy="5" r="3" stroke="#CEE8FF" stroke-width="3"/>
<circle cx="4.5" cy="43" r="3" stroke="#CEE8FF" stroke-width="3"/>
<circle cx="112.5" cy="28" r="4.5" fill="#DFEEFC"/>
<ellipse cx="66" cy="87.5" rx="31" ry="4" fill="#DFEEFC"/>
<path d="M63.0065 38.9571L52.159 57.6393C51.743 58.3558 50.825 58.5993 50.1086 58.1833L47.3476 56.5802C46.6312 56.1643 46.3876 55.2463 46.8036 54.5299L57.6511 35.8476C58.0671 35.1312 58.9851 34.8876 59.7015 35.3036L62.4625 36.9067C63.1789 37.3227 63.4225 38.2407 63.0065 38.9571Z" fill="white" stroke="#5B94C7" stroke-width="3"/>
<path d="M44.5882 64H91.4118C92.3466 64 93.0537 64.8458 92.8881 65.7658L89.4681 84.7658C89.3395 85.4802 88.7177 86 87.9918 86H48.0082C47.2823 86 46.6605 85.4802 46.5319 84.7658L43.1119 65.7658C42.9463 64.8458 43.6534 64 44.5882 64Z" fill="white" stroke="#5B94C7" stroke-width="3"/>
<rect opacity="0.5" x="71" y="82.5" width="4" height="15" rx="2" transform="rotate(-180 71 82.5)" fill="#5B94C7"/>
<rect opacity="0.5" x="77.9785" y="82.6665" width="4" height="15" rx="2" transform="rotate(-174.07 77.9785 82.6665)" fill="#5B94C7"/>
<rect opacity="0.5" x="84.9336" y="82.7382" width="4" height="15" rx="2" transform="rotate(-169.57 84.9336 82.7382)" fill="#5B94C7"/>
<rect opacity="0.5" x="56.6484" y="82.0142" width="4" height="15" rx="2" transform="rotate(169.573 56.6484 82.0142)" fill="#5B94C7"/>
<rect opacity="0.5" x="64.5283" y="82.2533" width="4" height="15" rx="2" transform="rotate(174.07 64.5283 82.2533)" fill="#5B94C7"/>
<rect x="85.4559" y="57.7003" width="24.6031" height="6.19263" rx="1.5" transform="rotate(-128.595 85.4559 57.7003)" fill="white" stroke="#5B94C7" stroke-width="3"/>
<rect x="40.5" y="52" width="55" height="7" rx="1.5" fill="white" stroke="#5B94C7" stroke-width="3"/>
<rect x="89.3439" y="62.6001" width="5.26692" height="23.3543" rx="1.5" transform="rotate(-48.8568 89.3439 62.6001)" fill="#CEE8FF" stroke="#5B94C7" stroke-width="3"/>
<circle cx="88.3711" cy="58.4017" r="12.4077" transform="rotate(4.25698 88.3711 58.4017)" fill="#CEE8FF" stroke="#5B94C7" stroke-width="3"/>
<circle cx="88.3711" cy="58.4016" r="7.19229" transform="rotate(4.25698 88.3711 58.4016)" fill="white" stroke="#5B94C7" stroke-width="3"/>
</svg>
