<svg width="215" height="29" viewBox="0 0 215 29" fill="none" xmlns="http://www.w3.org/2000/svg">
<path d="M53.8289 19.5835C53.8289 22.7505 51.2107 24.6108 46.2861 24.6108H36.386V6.28352H45.762C50.5805 6.28352 52.9378 8.24777 52.9378 11.0753C52.9378 12.8296 52.0466 14.2423 50.4765 15.0547C52.5453 15.7866 53.8289 17.3584 53.8289 19.5835ZM41.5206 10.0275V13.5614H45.083C46.8123 13.5614 47.7013 12.959 47.7013 11.7817C47.7013 10.6299 46.8101 10.0275 45.083 10.0275H41.5206ZM48.5903 19.0066C48.5903 17.7508 47.6482 17.1484 45.866 17.1484H41.5185V20.8669H45.866C47.6482 20.8669 48.5903 20.2644 48.5903 19.0066Z" fill="white"/>
<path d="M68.8064 21.0493H61.0535L59.6128 24.6108H54.3233L62.4157 6.28352H67.5227L75.6406 24.6108H70.2471L68.8064 21.0493ZM67.2872 17.2269L64.9299 11.3617L62.5727 17.2269H67.2872Z" fill="white"/>
<path d="M75.8994 15.4472C75.8994 9.87049 80.1684 5.91655 85.982 5.91655C89.3598 5.91655 92.0842 7.14685 93.8643 9.372L90.565 12.3565C89.4129 10.9693 87.9977 10.2099 86.2451 10.2099C83.2343 10.2099 81.138 12.3035 81.138 15.4472C81.138 18.5887 83.2322 20.6823 86.2451 20.6823C87.9998 20.6823 89.4129 19.9229 90.565 18.5356L93.8643 21.5202C92.0842 23.7453 89.3598 24.9756 85.982 24.9756C80.1684 24.9778 75.8994 21.0238 75.8994 15.4472Z" fill="white"/>
<path d="M103.238 17.9608L101.301 20.029V24.6108H96.1685V6.28352H101.301V13.9029L108.398 6.28352H114.108L106.618 14.3993L114.501 24.6108H108.475L103.238 17.9608Z" fill="white"/>
<path d="M114.798 15.1714C114.798 9.67322 119.117 5.64079 124.984 5.64079C130.851 5.64079 135.171 9.67322 135.171 15.1714C135.171 20.6696 130.851 24.702 124.984 24.702C119.12 24.6999 114.798 20.6675 114.798 15.1714ZM129.934 15.1714C129.934 12.0023 127.759 9.93413 124.984 9.93413C122.209 9.93413 120.034 12.0023 120.034 15.1714C120.034 18.3384 122.207 20.4066 124.984 20.4066C127.761 20.4066 129.934 18.3384 129.934 15.1714Z" fill="white"/>
<path d="M143.078 10.0126V14.045H151.171V18.0499H143.078V24.3329H137.893V6.00565H152.27V10.0105H143.078V10.0126Z" fill="white"/>
<path d="M159.889 10.0126V14.045H167.981V18.0499H159.889V24.3329H154.703V6.00565H169.081V10.0105H159.889V10.0126Z" fill="white"/>
<path d="M171.514 6.00777H176.7V24.335H171.514V6.00777Z" fill="white"/>
<path d="M179.447 15.1714C179.447 9.59473 183.716 5.64079 189.53 5.64079C192.908 5.64079 195.632 6.8711 197.412 9.09625L194.113 12.0808C192.961 10.6935 191.546 9.93413 189.793 9.93413C186.782 9.93413 184.686 12.0278 184.686 15.1714C184.686 18.3129 186.78 20.4065 189.793 20.4065C191.548 20.4065 192.961 19.6472 194.113 18.2599L197.412 21.2444C195.632 23.4696 192.908 24.6999 189.53 24.6999C183.716 24.6999 179.447 20.7481 179.447 15.1714Z" fill="white"/>
<path d="M214.433 20.3281V24.3329H199.714V6.00565H214.091V10.0105H204.847V13.099H212.992V16.9744H204.847V20.3259H214.433V20.3281Z" fill="white"/>
<path d="M9.41441 11.8644C9.41441 12.0235 9.28498 12.1529 9.12585 12.1529H3.71749C3.55836 12.1529 3.42894 12.0235 3.42894 11.8644V6.45745C3.42894 6.29836 3.55624 6.17109 3.71537 6.16897L3.36316 5.81897C3.13825 5.94412 2.98549 6.1817 2.98549 6.45533V11.8644C2.98549 12.2675 3.31436 12.5962 3.71749 12.5962H9.12585C9.41228 12.5962 9.65841 12.4287 9.77935 12.189L9.41653 11.8284V11.8644H9.41441Z" fill="white"/>
<path d="M16.2314 19.2611H10.8316C10.4242 19.2611 10.0953 19.592 10.0953 19.9972V25.3956C10.0953 25.8029 10.4263 26.1317 10.8316 26.1317H16.2293C16.6367 26.1317 16.9655 25.8008 16.9655 25.3956V19.9972C16.9677 19.592 16.6367 19.2611 16.2314 19.2611ZM16.5242 25.3956C16.5242 25.5569 16.3927 25.6905 16.2293 25.6905H10.8316C10.6703 25.6905 10.5366 25.559 10.5366 25.3956V19.9972C10.5366 19.8359 10.6682 19.7023 10.8316 19.7023H16.2293C16.3906 19.7023 16.5242 19.8338 16.5242 19.9972V25.3956Z" fill="white"/>
<path d="M9.12354 12.8338H3.71731C3.31206 12.8338 2.98318 13.1626 2.98318 13.5678V25.3999C2.98318 25.805 3.31206 26.1338 3.71731 26.1338H9.12142C9.52668 26.1338 9.85555 25.805 9.85555 25.3999V13.5678C9.85767 13.1626 9.5288 12.8338 9.12354 12.8338ZM9.41422 25.3978C9.41422 25.559 9.28267 25.6884 9.12354 25.6884H3.71731C3.55606 25.6884 3.42663 25.5568 3.42663 25.3978V13.5678C3.42663 13.4065 3.55818 13.2771 3.71731 13.2771H9.12142C9.28267 13.2771 9.4121 13.4087 9.4121 13.5678V25.3978H9.41422Z" fill="white"/>
<path d="M10.8316 18.5802C10.6703 18.5802 10.5388 18.4487 10.5388 18.2853V12.9441L10.0953 12.505V18.2875C10.0953 18.6947 10.4263 19.0235 10.8316 19.0235H16.2314C16.3566 19.0235 16.4712 18.9896 16.5751 18.9344L16.2187 18.5802H10.8316Z" fill="white"/>
<path d="M23.3711 25.6841C23.3605 25.6862 23.3499 25.6905 23.3372 25.6905H17.9479C17.7824 25.6905 17.6488 25.5568 17.6488 25.3914V20.0035L17.2053 19.5644V25.3935C17.2053 25.8029 17.5384 26.1359 17.9479 26.1359H23.3372C23.4751 26.1359 23.6045 26.0956 23.7149 26.0278L23.3711 25.6841Z" fill="white"/>
<path d="M12.4568 14.8723V14.7917H12.2659L12.4568 14.9826C12.4568 14.9466 12.4568 14.9084 12.4568 14.8723Z" fill="white"/>
<path d="M15.6289 18.1538L15.8983 18.4232C15.8304 18.3362 15.7413 18.245 15.6289 18.1538Z" fill="white"/>
<path d="M16.0447 15.9456C15.4718 15.7526 14.935 15.6826 14.5022 15.6275C13.6026 15.5108 13.2398 15.4366 13.2398 14.7917H12.9724C12.9724 15.6996 13.6323 15.7844 14.4682 15.8947C14.9096 15.952 15.4124 16.0178 15.9598 16.2023C17.4281 16.6944 18.2259 17.9099 18.0413 19.3735C18.0031 19.6832 17.914 19.9993 17.7824 20.309L17.9819 20.5084C18.1474 20.1435 18.2598 19.7702 18.3065 19.4075C18.5102 17.8081 17.6424 16.4823 16.0447 15.9456Z" fill="white"/>
<path d="M16.6431 18.2111C16.2442 17.5005 15.4443 17.0529 14.4131 16.9384L14.7335 17.2587C15.5058 17.4156 16.0978 17.7911 16.4097 18.3447C16.5518 18.595 16.6218 18.8729 16.6303 19.155L16.8892 19.4138C16.9295 18.9981 16.851 18.5823 16.6431 18.2111Z" fill="white"/>
<path d="M19.7854 18.1453C19.7323 17.842 19.6368 17.5556 19.5223 17.2799C19.5223 17.1696 19.5223 14.7047 19.5202 14.6432C19.4226 11.3426 16.7725 8.75897 13.488 8.75897C11.5169 8.75897 9.76857 9.71988 8.66525 11.1941L8.85621 11.385C9.9086 9.95746 11.589 9.02837 13.4859 9.02837C16.624 9.02837 19.1573 11.4975 19.2507 14.6517C19.2528 14.7026 19.2528 15.9838 19.2528 16.7432C19.1043 16.4908 18.9367 16.2469 18.7372 16.0305C18.7372 15.7823 18.7372 14.6899 18.7351 14.6432C18.6545 11.7647 16.3481 9.50988 13.4838 9.50988C11.7185 9.50988 10.159 10.3923 9.2063 11.7372L9.39726 11.9281C10.299 10.6299 11.7927 9.77928 13.4838 9.77928C16.2017 9.77928 18.3914 11.9196 18.4656 14.6496C18.4678 14.6878 18.4678 15.3475 18.4678 15.7569C18.2938 15.5978 18.1071 15.4535 17.9055 15.322V14.6496C17.8928 12.2102 15.9089 10.2269 13.4816 10.2269C11.9158 10.2269 10.543 11.0499 9.75584 12.2865L9.95104 12.4817C10.6852 11.2917 11.99 10.4962 13.4816 10.4962C15.7604 10.4962 17.6254 12.3608 17.6382 14.6517V15.165C17.4111 15.0399 17.1756 14.9232 16.9231 14.8362C16.8531 14.8108 16.7767 14.849 16.7534 14.919C16.7279 14.989 16.7661 15.0653 16.8361 15.0908C18.2577 15.5893 19.2592 16.7496 19.518 18.1941C19.709 19.2738 19.4565 20.3832 18.8497 21.3781L19.0491 21.5775C19.7196 20.5105 19.9933 19.3099 19.7854 18.1453Z" fill="white"/>
<path d="M17.9904 16.2384C16.6282 15.1014 15.5313 14.9784 14.3707 14.849C14.2179 14.832 14.063 14.815 13.9081 14.7959C13.9017 14.7959 13.8975 14.7938 13.8911 14.7938C13.8254 14.7938 13.766 14.8426 13.7575 14.9105C13.749 14.9847 13.7999 15.0526 13.8742 15.0611C14.0312 15.0802 14.1882 15.0993 14.341 15.1162C15.4612 15.2414 16.52 15.3602 17.8185 16.4462C18.9303 17.3732 19.1149 19.2632 18.315 20.8393L18.5144 21.0387C19.4141 19.3396 19.2125 17.2608 17.9904 16.2384Z" fill="white"/>
<path d="M17.4026 18.0308C17.1056 17.3923 16.2569 16.3084 13.9208 16.2129C13.8317 16.2087 13.749 16.2023 13.6705 16.1959L13.9612 16.4865C15.561 16.5629 16.6961 17.1505 17.1608 18.1453C17.3984 18.6565 17.4302 19.2314 17.269 19.7914L17.4769 19.9993C17.7039 19.3375 17.6891 18.6459 17.4026 18.0308Z" fill="white"/>
<path d="M19.8575 9.47595C16.3418 5.9611 10.6194 5.95898 7.10364 9.47382L2.35515 4.72867C2.36576 4.71595 2.37849 4.70322 2.3891 4.69261C2.83891 4.24716 3.30994 3.83352 3.82552 3.43049C3.96344 3.32231 4.1544 3.30534 4.30716 3.39019L6.46499 4.55898C6.64109 4.65443 6.85963 4.65231 7.0315 4.55049C7.44948 4.30867 7.88232 4.08595 8.31516 3.89292C8.49339 3.81231 8.62493 3.63837 8.65039 3.44746L9.00261 0.974129C9.02595 0.804432 9.15113 0.662311 9.31663 0.613523C10.5366 0.261402 11.7991 0.055644 13.07 0.000492446C13.2482 -0.0079924 13.4137 0.0938259 13.4901 0.255038L14.5213 2.47595C14.6083 2.66049 14.7865 2.78776 14.9902 2.80898C15.4485 2.85352 15.9132 2.92352 16.3757 3.01898C16.5667 3.05716 16.764 2.99989 16.9019 2.86201C16.904 2.85989 18.646 1.03352 18.646 1.03352C18.7436 0.935947 18.9579 0.859583 19.1213 0.918977C20.3116 1.3517 21.4425 1.92231 22.48 2.61807C22.6285 2.71777 22.7028 2.89595 22.6667 3.07201L22.1808 5.50928C22.1405 5.70867 22.2105 5.91655 22.3612 6.05231C22.5309 6.20292 22.6985 6.36413 22.8619 6.52958C23.0189 6.68867 23.178 6.85625 23.3351 7.03231C23.4709 7.18292 23.6767 7.25292 23.8761 7.21473L26.3182 6.74383C26.4944 6.70989 26.6726 6.78413 26.7702 6.93261C27.464 7.98261 28.0305 9.11746 28.4527 10.3032C28.5143 10.475 28.4739 10.6384 28.3339 10.7784L26.4965 12.5072C26.3543 12.6493 26.2949 12.8466 26.3331 13.0353C26.4265 13.4956 26.4944 13.9623 26.5368 14.4184C26.5559 14.622 26.6811 14.8023 26.8657 14.8893L29.0829 15.9329C29.2463 16.0093 29.3439 16.1747 29.3354 16.355C29.2717 17.6235 29.0596 18.8856 28.6989 20.1011C28.6522 20.2666 28.5058 20.3896 28.336 20.4129L25.8599 20.7523C25.7369 20.7693 25.6181 20.8266 25.529 20.9156C25.4802 20.9644 25.4398 21.0217 25.4123 21.0853C25.2107 21.5308 24.9858 21.9614 24.7481 22.3644C24.6463 22.5363 24.6421 22.7547 24.7354 22.9308L25.8939 25.0944C25.9766 25.2493 25.9597 25.4381 25.8493 25.5759C25.4377 26.0935 25.024 26.5369 24.6081 26.9738L19.8596 22.2266C23.3733 18.7117 23.3733 12.9908 19.8575 9.47595Z" fill="white"/>
<path d="M0 2.48232C2.28513 4.62262 4.53631 6.79686 6.78325 8.97747L13.4838 15.5553L20.1121 22.2075L23.4008 25.559C24.485 26.6875 25.5799 27.8053 26.6556 28.9444C25.5099 27.8775 24.3832 26.7893 23.2481 25.7138L19.8702 22.4493L13.1719 15.8693L6.54349 9.21716C4.34747 6.98777 2.15782 4.75201 0 2.48232Z" fill="white"/>
</svg>
