<svg width="727" height="457" viewBox="0 0 727 457" fill="none" xmlns="http://www.w3.org/2000/svg">
<mask id="mask0_14064_526026" style="mask-type:alpha" maskUnits="userSpaceOnUse" x="0" y="0" width="727" height="457">
<rect width="727" height="457" rx="10" fill="white"/>
</mask>
<g mask="url(#mask0_14064_526026)">
<path fill-rule="evenodd" clip-rule="evenodd" d="M31.8041 425.781C27.3571 425.781 22.7455 425.623 18.0972 425.312C-22.6545 422.536 -60.9104 409.311 -95.6077 386.003C-122.528 367.898 -147.221 343.844 -169 314.509V298.094C-134.533 348.225 -73.9986 409.317 18.7673 415.629C23.2973 415.934 27.7267 416.088 31.9321 416.088C55.0254 416.088 75.5175 411.798 92.8394 403.337C103.001 398.377 117.004 389.491 126.008 375.324C135.004 361.187 136.225 345.577 129.358 332.497C118.321 311.488 88.1656 299.12 46.6244 298.563C12.1166 298.094 -14.2239 288.587 -31.6654 270.305C-56.9212 243.572 -56.0835 206.403 -55.7682 192.411V189.304L-46.3182 189.421V192.724V192.802C-46.5943 205.714 -47.3274 240.011 -24.8858 263.573C-9.34375 279.932 14.7158 288.45 46.6244 288.89C108.394 289.671 130.227 313.682 137.744 327.925C146.336 344.123 144.971 363.319 133.999 380.59C128.512 389.245 117.77 401.656 97.7566 411.633C78.9094 421.021 56.7199 425.781 31.804 425.781L31.8041 425.781ZM29.9928 448.393H23.6172C-41.4826 446.741 -106.235 417.871 -168.84 362.584V349.706C-106.136 407.094 -41.3103 437.029 23.8537 438.671C26.8789 438.745 29.0398 438.778 30.8599 438.778C85.7943 438.778 128.79 419.283 148.822 385.292C161.689 364.767 162.549 338.765 151.068 317.432C136.05 290.638 103.021 275.271 60.4514 275.271C28.5512 275.271 4.87634 267.328 -9.91579 251.664C-29.0851 231.64 -28.185 204.295 -27.8007 192.618V189.315L-18.1833 189.11V192.735C-19.8582 227.076 -7.60338 239.955 -2.98997 244.803C9.95714 258.413 31.3152 265.314 60.4908 265.314C106.55 265.314 142.596 282.533 159.385 312.557C172.58 336.955 171.67 366.712 157.01 390.216C146.045 408.745 129.366 423.219 107.435 433.238C85.467 443.294 59.4117 448.393 29.9928 448.393L29.9928 448.393ZM30.5474 471.88C14.2228 471.831 -2.18488 470.319 -18.2199 467.385C-43.7514 462.821 -69.5747 454.632 -94.9725 443.046C-120.24 431.516 -145.118 416.651 -168.917 398.862V386.501C-120.321 424.026 -67.645 448.704 -16.5644 457.859C-0.573059 460.692 15.2478 462.129 30.4587 462.129C59.1366 462.129 85.255 457.171 108.088 447.394C131.23 437.504 149.998 423.121 163.871 404.646C186.198 374.946 191.414 339.632 177.825 310.18C161.084 273.904 119.849 252.629 61.7155 250.275C0.216888 247.724 0.216873 214.473 0.216873 192.47V192.176V189.304L9.79489 189.421V192.333C9.66681 215.05 9.53447 238.54 62.1096 240.709C145.579 244.129 175.863 283.211 186.486 306.204C201.651 338.973 196.025 377.981 171.439 410.548C156.591 430.234 136.686 445.566 112.276 456.12C88.0681 466.578 60.5704 471.88 30.5474 471.88V471.88ZM130.779 473.85H130.776H105.996C135.324 463.707 160.578 446.246 179.024 423.334C195.468 402.925 206.191 378.381 209.216 354.224C215.838 301.577 187.368 257.843 134.917 240.089C117.58 234.639 99.6441 230.931 81.6074 229.068C51.7622 225.121 28.1891 222.003 28.1891 189.31L37.6784 189.183C37.6784 212.45 50.7003 215.086 82.7899 219.297C101.481 221.27 120.037 225.14 137.942 230.797C195.011 250.057 225.958 297.838 218.706 355.494C215.828 378.338 206.782 401.077 192.543 421.253C177.036 443.233 155.679 461.421 130.781 473.849L130.779 473.85ZM174.463 473.93H174.459H157.218C178.244 460.995 196.595 443.307 210.282 422.759C248.602 363.433 244.571 285.495 201.295 249.022C154.908 209.942 117.156 205.66 77.188 201.126L77.0368 201.115C70.4749 200.411 65.336 199.818 60.3737 199.19C57.7893 198.75 56.058 196.364 56.4321 193.757L56.2347 193.64C56.5017 191.212 58.5374 189.39 60.965 189.39H61.5562C67.8826 190.191 74.0285 190.894 78.101 191.354C119.546 195.995 158.693 200.379 207.365 241.42C254.365 280.98 259.259 364.638 218.274 427.909C206.506 445.763 191.767 461.246 174.466 473.928L174.463 473.93ZM-123.875 474.082H-168.705L-168.764 474.023L-168.764 452.595C-154.682 461.446 -139.584 468.671 -123.872 474.06L-123.875 474.082ZM-50.3486 474.075H-83.3497C-113.258 463.421 -141.994 449.384 -168.764 432.353V421.018C-132.336 444.953 -92.4999 462.799 -50.3458 474.053L-50.3486 474.075ZM46.5863 8.6252C-51.5861 8.6252 -131.455 89.6757 -131.455 189.3V189.378C-131.485 193.015 -131.331 212.423 -125.375 237.403C-117.227 271.469 -101.699 300.432 -80.4707 321.159H-80.3128C-51.0745 349.467 -10.7425 363.819 39.5703 363.819C46.4426 363.819 53.2292 363.583 59.7413 363.116C69.8272 362.403 74.0589 357.161 73.8424 353.667C73.6353 350.265 69.7233 346.603 61.6235 346.603C61.0127 346.603 60.3795 346.623 59.7414 346.662C53.67 347.051 47.5995 347.248 41.6988 347.248C18.0731 347.248 -3.31422 344.082 -21.8691 337.838C-40.2854 331.647 -56.0234 322.38 -68.6458 310.294C-97.043 283.113 -111.442 240.975 -111.442 185.05C-111.442 142.35 -94.9274 102.115 -64.9408 71.7554C-50.3709 57.0151 -33.4626 45.45 -14.6855 37.3811C4.69894 29.0108 25.3005 24.7668 46.547 24.7668C133.184 24.7668 204.053 96.2618 204.526 184.141V208.344C211.693 213.069 218.441 218.371 224.579 224.094V184.18C221.859 85.7381 143.675 8.6251 46.5865 8.6251L46.5863 8.6252ZM199.523 474.13H199.493C223.695 451.891 242.217 425.411 253.05 397.535C263.923 369.463 267.061 339.899 262.125 312.039C253.021 260.092 216.324 217.241 166.355 200.211C163.848 199.31 162.54 196.54 163.438 194.035L163.467 193.957C164.136 192.075 165.926 190.811 167.921 190.811C168.531 190.811 169.065 190.903 169.508 191.085C178.346 194.296 186.92 198.267 194.99 202.888V184.352C194.783 144.443 179.27 106.914 151.308 78.6794C123.305 50.3757 86.116 34.7882 46.5896 34.7882C-35.2443 34.7882 -101.821 102.343 -101.821 185.378C-101.821 238.284 -88.4335 278.013 -62.0306 303.46C-38.4885 326.14 -3.55457 337.639 41.8006 337.639C47.5777 337.639 53.3762 337.462 59.0351 337.112C59.7419 337.073 60.4446 337.053 61.1241 337.053C75.6811 337.053 82.6942 345.15 83.1871 353.175C83.4927 357.183 82.0544 361.236 79.1372 364.588C75.0117 369.332 68.2926 372.268 60.2175 372.854C52.6211 373.327 45.6489 373.567 39.4946 373.567C-13.5535 373.567 -56.169 358.284 -87.1682 328.142C-138.929 277.745 -141.109 203.827 -141.02 189.521V189.238C-141.02 84.3388 -56.8588 -1.00288 46.5895 -1.00288C148.909 -1.00288 231.282 80.2603 234.12 184.001V233.989C241.185 241.98 247.376 250.615 252.518 259.647V184.274C249.167 70.6499 158.713 -18.3561 46.5895 -18.3561C-66.9814 -18.3561 -159.378 75.4057 -159.378 190.655C-159.378 251.21 -136.047 306.946 -95.3667 343.57C-78.5355 358.716 -59.2402 370.334 -38.0166 378.101C-16.8518 385.849 6.2695 389.777 30.7049 389.777C40.1506 389.777 50.1332 389.156 60.3752 387.93C89.1477 384.433 107.378 364.655 106.354 348.378C105.861 340.786 101.309 334.532 93.1889 330.291C85.0965 326.079 73.4328 323.852 59.4587 323.852H58.3649H58.2467H58.1285H58.0102H57.8427H57.5964L57.3766 323.856C56.2864 323.874 55.2607 323.892 54.2263 323.892C9.20924 323.892 -25.7445 311.643 -49.664 287.485C-65.4653 271.455 -84.212 241.671 -83.7883 190.811V189.394H-74.2102V190.928C-74.4467 238.485 -57.1984 265.934 -42.6874 280.587C-20.8349 302.89 11.8279 314.199 54.3938 314.199C55.7339 314.199 57.0839 314.189 58.4438 314.169H60.2175C110.144 314.169 115.567 339.867 116.04 347.742C117.381 368.383 96.992 393.304 61.7154 397.574C51.4815 398.826 41.1674 399.46 31.0597 399.46H30.8232H30.6459C-20.6629 399.46 -66.3601 382.651 -101.506 350.85C-144.246 312.358 -168.759 253.97 -168.759 190.655L-168.878 190.733C-168.877 70.119 -72.1761 -28 46.6684 -28C163.983 -28 258.627 65.1562 262.135 184.079V279.141C266.364 289.234 269.531 299.723 271.546 310.31C281.597 367.387 260.479 427.093 213.604 474.12L199.523 474.13Z" fill="url(#paint0_linear_14064_526026)" fill-opacity="0.2"/>
</g>
<defs>
<linearGradient id="paint0_linear_14064_526026" x1="175.296" y1="3.89425" x2="-330.104" y2="802.888" gradientUnits="userSpaceOnUse">
<stop stop-color="#FF154A"/>
<stop offset="0.72304" stop-color="#0067B5"/>
</linearGradient>
</defs>
</svg>
