<svg width="18" height="19" viewBox="0 0 18 19" fill="none" xmlns="http://www.w3.org/2000/svg">
<path d="M14.2267 15.7333C14.2267 16.9852 13.2715 18 12.0933 18C10.9151 18 9.96 16.9852 9.96 15.7333C9.96 14.4815 10.9151 13.4667 12.0933 13.4667C13.2715 13.4667 14.2267 14.4815 14.2267 15.7333Z" fill="#5B94C7"/>
<path d="M6.76 9.5C6.76 10.7518 5.80487 11.7667 4.62666 11.7667C3.44846 11.7667 2.49333 10.7518 2.49333 9.5C2.49333 8.24815 3.44846 7.23333 4.62666 7.23333C5.80487 7.23333 6.76 8.24815 6.76 9.5Z" fill="#5B94C7"/>
<path d="M14.2267 3.26667C14.2267 4.51851 13.2715 5.53333 12.0933 5.53333C10.9151 5.53333 9.96 4.51851 9.96 3.26667C9.96 2.01482 10.9151 1 12.0933 1C13.2715 1 14.2267 2.01482 14.2267 3.26667Z" fill="#5B94C7"/>
<path d="M14.76 15.6737H17M2.49333 9.5L1 9.54159M2.49333 9.5C2.49333 10.7518 3.44846 11.7667 4.62666 11.7667C5.80487 11.7667 6.76 10.7518 6.76 9.5C6.76 8.24815 5.80487 7.23333 4.62666 7.23333C3.44846 7.23333 2.49333 8.24815 2.49333 9.5ZM7.37243 9.54166H17M9.71196 3.4095L1 3.4095M17 3.4095H14.76M1 15.6737H9.71196M14.2267 15.7333C14.2267 16.9852 13.2715 18 12.0933 18C10.9151 18 9.96 16.9852 9.96 15.7333C9.96 14.4815 10.9151 13.4667 12.0933 13.4667C13.2715 13.4667 14.2267 14.4815 14.2267 15.7333ZM14.2267 3.26667C14.2267 4.51851 13.2715 5.53333 12.0933 5.53333C10.9151 5.53333 9.96 4.51851 9.96 3.26667C9.96 2.01482 10.9151 1 12.0933 1C13.2715 1 14.2267 2.01482 14.2267 3.26667Z" stroke="#5B94C7" stroke-width="1.5" stroke-linecap="round"/>
</svg>
